<svg width="206" height="206" viewBox="0 0 206 206" fill="none" xmlns="http://www.w3.org/2000/svg">
<circle cx="103" cy="103" r="103" fill="#1B262C"/>
<path style="mix-blend-mode:multiply" d="M164.313 98.6104V126.789L106.862 184.95V155.899L164.313 98.6104Z" fill="url(#paint0_linear_1_38)"/>
<path style="mix-blend-mode:multiply" d="M42 91.1851V135.442L88.2835 182.45V137.335L42 91.1851Z" fill="url(#paint1_linear_1_38)"/>
<path d="M118.932 87.4131L88.2391 118.121L61.5843 91.4661L109.258 43.7922L105.19 39.7244L53.4488 91.4661L88.2391 126.256L118.932 95.5634L120.589 97.2053L88.2391 129.57L50.1355 91.4661L103.534 38.0677L99.466 34L42 91.4661L88.2391 137.705L128.724 97.2201L118.932 87.4131Z" fill="#35B6C8"/>
<path d="M118.015 52.4305L77.5594 92.886L87.3516 102.678L118.015 72.0148L144.67 98.6696L96.9958 146.329L101.064 150.396L152.805 98.6696L118.015 63.8793L87.3516 94.5427L85.6949 92.886L118.015 60.566L156.119 98.6696L102.72 152.053L106.788 156.121L164.254 98.6696L118.015 52.4305Z" fill="#E4EBEE"/>
<defs>
<linearGradient id="paint0_linear_1_38" x1="124.464" y1="130.191" x2="148.042" y2="154.76" gradientUnits="userSpaceOnUse">
<stop offset="0.08" stop-color="#1B262C"/>
<stop offset="0.3" stop-color="#1B262C" stop-opacity="0.49"/>
<stop offset="0.52" stop-color="#1B262C" stop-opacity="0.13"/>
<stop offset="0.7" stop-color="#1B262C" stop-opacity="0"/>
</linearGradient>
<linearGradient id="paint1_linear_1_38" x1="82.8253" y1="118.387" x2="47.4582" y2="155.248" gradientUnits="userSpaceOnUse">
<stop stop-color="#2C9FAF"/>
<stop offset="0.11" stop-color="#2C9FAF" stop-opacity="0.75"/>
<stop offset="0.25" stop-color="#2C9FAF" stop-opacity="0.48"/>
<stop offset="0.38" stop-color="#2C9FAF" stop-opacity="0.27"/>
<stop offset="0.5" stop-color="#2C9FAF" stop-opacity="0.12"/>
<stop offset="0.61" stop-color="#2C9FAF" stop-opacity="0.03"/>
<stop offset="0.7" stop-color="#2C9FAF" stop-opacity="0"/>
</linearGradient>
</defs>
</svg>
